<svg width="1200" height="324" viewBox="0 0 1200 324" fill="none" xmlns="http://www.w3.org/2000/svg">
<g clip-path="url(#clip0_7_123)">
<path d="M255.204 244.8H215.065V82.31H252.223L255.523 103.393C260.527 95.3007 267.767 88.9118 277.03 84.3331C286.399 79.7545 296.513 77.4119 307.479 77.4119C327.921 77.4119 343.253 83.4813 353.686 95.5137C364.12 107.546 369.337 124.051 369.337 144.921V244.907H329.199V154.398C329.199 140.768 326.111 130.652 319.936 123.944C313.761 117.236 305.456 113.935 294.916 113.935C282.459 113.935 272.664 117.875 265.637 125.754C258.611 133.634 255.097 144.176 255.097 157.379V244.907L255.204 244.8Z" fill="black"/>
<path d="M513.282 192.199C511.046 199.865 506.361 205.828 499.335 209.981C492.201 214.134 483.151 216.263 472.185 216.263C457.28 216.263 445.994 211.791 438.435 202.74C432.366 195.606 428.853 185.597 427.682 173.032L549.8 172.713V160.574C549.8 143.43 546.606 128.736 540.112 116.49C533.617 104.245 524.461 94.6618 512.643 87.7405C500.825 80.8193 486.665 77.4119 470.162 77.4119C453.66 77.4119 440.351 81.0322 428.108 88.3794C415.864 95.7266 406.282 105.842 399.468 118.833C392.654 131.824 389.247 146.731 389.247 163.555C389.247 180.379 392.76 194.967 399.787 207.851C406.814 220.736 416.503 230.745 428.959 238.092C441.31 245.439 455.576 249.06 471.546 249.06C492.84 249.06 510.407 244.055 524.355 233.939C538.302 223.824 547.032 209.875 550.546 192.199H513.388H513.282ZM446.633 116.171C453.128 112.231 461.006 110.208 470.482 110.208C482.513 110.208 492.095 113.615 499.228 120.43C506.361 127.245 509.875 136.19 509.875 147.477H428.108C428.959 142.472 430.13 138 431.834 133.953C435.134 126.074 440.032 120.111 446.526 116.171H446.633Z" fill="black"/>
<path d="M612.616 244.8H572.797V0H612.616V244.8Z" fill="black"/>
<path d="M1028.27 323.809V85.8239H1065.42L1068.09 110.528C1072.88 101.051 1080.33 93.81 1090.44 88.5924C1100.56 83.4813 1111.63 80.8193 1123.66 80.8193C1139.21 80.8193 1152.62 84.3332 1164.01 91.3609C1175.3 98.3887 1184.14 108.185 1190.52 120.643C1196.91 133.102 1200.11 147.902 1200.11 165.046C1200.11 182.189 1197.13 196.99 1191.27 210.088C1185.31 223.291 1176.79 233.62 1165.4 241.18C1154.11 248.74 1140.38 252.574 1124.09 252.574C1112.06 252.574 1100.98 250.231 1090.98 245.652C1080.97 241.074 1073.52 234.685 1068.41 226.592V323.703H1028.27V323.809ZM1068.72 167.176C1068.72 176.865 1070.54 185.384 1074.37 192.838C1078.09 200.291 1083.42 206.148 1090.34 210.407C1097.26 214.666 1105.35 216.796 1114.51 216.796C1123.66 216.796 1132.07 214.666 1138.89 210.407C1145.7 206.148 1150.81 200.291 1154.33 192.838C1157.84 185.384 1159.54 176.865 1159.54 167.176C1159.54 157.486 1157.84 148.967 1154.33 141.514C1150.81 134.06 1145.7 128.203 1138.89 123.944C1132.07 119.685 1123.98 117.555 1114.51 117.555C1105.03 117.555 1097.26 119.685 1090.34 123.838C1083.42 127.99 1078.09 133.847 1074.37 141.301C1070.64 148.754 1068.72 157.379 1068.72 167.282V167.176Z" fill="black"/>
<path d="M994.197 122.24C986.745 109.463 976.524 99.347 963.428 92.1063C950.333 84.8656 935.427 81.2452 918.499 81.2452C901.57 81.2452 886.878 84.8656 873.782 92.1063C860.58 99.347 850.359 109.356 842.907 122.24C835.454 135.125 831.727 149.926 831.727 166.856C831.727 183.787 835.454 198.588 842.907 211.472C846.633 217.861 851.105 223.611 856.215 228.615C836.731 233.513 811.179 236.069 786.159 227.231C790.737 222.546 794.783 217.328 798.19 211.472C805.643 198.694 809.369 183.787 809.369 166.856C809.369 149.926 805.643 135.125 798.19 122.24C790.737 109.463 780.516 99.347 767.421 92.1063C754.325 84.8656 739.42 81.2452 722.491 81.2452C705.563 81.2452 690.87 84.8656 677.775 92.1063C664.573 99.347 654.352 109.356 646.899 122.24C639.446 135.125 635.72 149.926 635.72 166.856C635.72 183.787 639.446 198.588 646.899 211.472C654.352 224.356 664.679 234.365 677.775 241.606C690.977 248.847 705.882 252.467 722.491 252.467C733.883 252.467 744.424 250.657 754.006 247.356C776.684 260.666 800.106 265.245 821.613 265.245C852.702 265.245 879.532 255.768 894.011 249.486C901.677 251.402 909.875 252.467 918.605 252.467C935.534 252.467 950.439 248.847 963.535 241.606C976.63 234.365 986.851 224.356 994.304 211.472C1001.76 198.694 1005.48 183.787 1005.48 166.856C1005.48 149.926 1001.76 135.125 994.304 122.24H994.197ZM722.385 216.476C713.122 216.476 705.137 214.453 698.217 210.194C691.296 206.041 685.866 200.185 681.821 192.731C677.775 185.277 675.752 176.546 675.752 166.75C675.752 156.953 677.775 147.902 681.821 140.555C685.866 133.208 691.403 127.458 698.217 123.305C705.137 119.153 713.229 117.023 722.385 117.023C731.541 117.023 739.739 119.153 746.766 123.305C753.793 127.458 759.223 133.208 763.269 140.555C767.208 147.902 769.231 156.634 769.231 166.75C769.231 176.865 767.314 185.277 763.269 192.731C759.329 200.185 753.793 206.041 746.766 210.194C739.739 214.347 731.648 216.476 722.385 216.476ZM959.276 192.838C955.337 200.291 949.8 206.148 942.774 210.3C935.747 214.453 927.655 216.583 918.392 216.583C909.13 216.583 901.145 214.56 894.224 210.3C887.304 206.148 881.874 200.291 877.828 192.838C873.782 185.384 871.759 176.652 871.759 166.856C871.759 157.06 873.782 148.009 877.828 140.662C881.874 133.315 887.41 127.565 894.224 123.412C901.145 119.259 909.236 117.129 918.392 117.129C927.549 117.129 935.747 119.259 942.774 123.412C949.8 127.565 955.23 133.315 959.276 140.662C963.215 148.009 965.238 156.74 965.238 166.856C965.238 176.972 963.322 185.384 959.276 192.838Z" fill="black"/>
<path d="M38.1155 247.249C29.811 247.249 21.0806 247.249 11.9244 247.249H0V210.939H12.1373C37.6896 211.152 105.723 211.578 120.415 207.851C129.571 205.509 146.18 199.12 153.633 182.083C160.234 167.069 160.66 149.287 154.698 135.657C149.694 124.264 140.005 115.106 128.081 110.74C113.175 105.203 95.8211 107.653 81.8738 117.342C68.2459 126.713 60.2608 141.301 60.1544 157.166C60.1544 167.282 63.1355 178.25 68.4589 186.662L37.9026 206.148C28.8528 191.879 23.7423 173.99 23.9553 156.847C24.2747 129.055 37.9026 103.819 61.432 87.6341C85.1743 71.3424 114.879 67.2961 140.857 76.9859C161.938 84.8656 179.186 101.051 188.022 121.495C198.03 144.389 197.604 172.606 186.851 196.884C176.737 219.884 156.401 236.282 129.359 243.097C115.837 246.504 83.4709 247.462 38.1155 247.462V247.249Z" fill="black"/>
</g>
<defs>
<clipPath id="clip0_7_123">
<rect width="1200" height="323.81" fill="white"/>
</clipPath>
</defs>
</svg>
